<?xml version="1.0" encoding="UTF-8"?>
<svg width="288px" height="234px" viewBox="0 0 288 234" version="1.1" xmlns="http://www.w3.org/2000/svg" xmlns:xlink="http://www.w3.org/1999/xlink">
    <!-- Generator: Sketch 51.3 (57544) - http://www.bohemiancoding.com/sketch -->
    <title>william-dodson-icon</title>
    <desc>Created with Sketch.</desc>
    <defs></defs>
    <g id="william-dodson-icon" stroke="none" stroke-width="1" fill="none" fill-rule="evenodd">
        <g id="wd-logo-icon-2014-b" fill-rule="nonzero">
            <path d="M288,194 C288,216.1 270.1,234 248,234 L40,234 C17.9,234 0,216.1 0,194 L0,40 C0,17.9 17.9,0 40,0 L248,0 C270.1,0 288,17.9 288,40 L288,194 Z" id="Shape" fill="#7A568F"></path>
            <path d="M219.1,36 L209.7,36 L153.4,36 C135.2,36 120.5,49.7 120.5,66.6 L120.5,167.3 C120.5,169.7 118.4,171.7 115.8,171.7 L111.1,171.7 C108.5,171.7 106.4,169.7 106.4,167.3 L106.4,84.1 C106.4,76.8 100.1,71 92.3,71 C84.5,71 78.2,76.9 78.2,84.1 L78.2,167.3 C78.2,169.7 76.1,171.7 73.5,171.7 L68.8,171.7 C66.2,171.7 64.1,169.7 64.1,167.3 L64.1,66.6 C64.1,64.2 66.2,62.2 68.8,62.2 L78.2,62.2 C86,62.2 92.3,56.3 92.3,49.1 C92.3,41.8 86,36 78.2,36 L68.8,36 C50.6,36 35.9,49.7 35.9,66.6 L35.9,167.3 C35.9,184.2 50.6,197.9 68.8,197.9 L73.5,197.9 C80.5,197.9 87,195.9 92.3,192.4 C97.6,195.9 104.1,197.9 111.1,197.9 L115.8,197.9 C134,197.9 148.7,184.2 148.7,167.3 L148.7,66.6 C148.7,64.2 150.8,62.2 153.4,62.2 L209.7,62.2 L219.1,62.2 C221.7,62.2 223.8,64.2 223.8,66.6 L223.8,167.3 C223.8,169.7 221.7,171.7 219.1,171.7 L191,171.7 L191,84.1 C191,76.8 184.7,71 176.9,71 C169.1,71 162.8,76.9 162.8,84.1 L162.8,193.6 C162.8,196 164.9,198 167.5,198 L219.2,198 C237.4,198 252.1,184.3 252.1,167.4 L252.1,66.6 C252,49.7 237.3,36 219.1,36 Z" id="Shape" fill="#F1F0EE"></path>
        </g>
    </g>
</svg>